<?xml version="1.0" encoding="iso-8859-1"?>
<!-- Uploaded to: SVG Repo, www.svgrepo.com, Generator: SVG Repo Mixer Tools -->
<svg fill="#000000" height="800px" width="800px" version="1.1" id="Capa_1" xmlns="http://www.w3.org/2000/svg" xmlns:xlink="http://www.w3.org/1999/xlink" 
	 viewBox="0 0 54.339 54.339" xml:space="preserve">
<g>
	<g>
		<path d="M48.951,28.055c-0.261,0-5.642-0.032-10.104-0.059c0.376-0.573,0.672-1.342,0.672-2.341c0-1.849-1.277-2.803-2.363-3.11
			c0.371-0.539,0.633-1.264,0.633-2.21c0-2.148-1.624-3.537-4.136-3.537c-0.118,0-0.267-0.008-0.438-0.022
			c0.549-0.462,0.927-1.073,0.927-1.879c0-2.229-1.534-3.726-3.818-3.726H16.66c-0.078,0-0.156,0.009-0.232,0.027
			c-0.181,0.043-4.287,1.036-6.568,2.699H5.91C2.651,13.897,0,16.55,0,19.812v6.477c0,3.261,2.649,5.914,5.905,5.914h3.289
			c1.229,1.38,5.85,6.328,10.224,7.914c2.723,0.987,4.957,1.452,6.751,1.824c1.406,0.293,2.62,0.545,3.654,0.961
			c0.445,0.179,0.883,0.267,1.304,0.267c0.807,0,1.546-0.325,2.125-0.958c0.951-1.039,1.309-2.791,0.781-3.826
			c-0.45-0.881-1.916-2.048-3.458-2.876l18.235-0.505c0.091-0.003,0.182-0.018,0.269-0.045C50.163,34.622,52,33.53,52,31.573
			C52,29.297,49.986,28.055,48.951,28.055z M48.592,33.008l-24.315,0.674c-0.378,0.011-0.719,0.234-0.879,0.578
			c-0.16,0.344-0.112,0.748,0.124,1.044c0.521,0.655,1.384,0.771,2.476,0.917c0.572,0.077,1.22,0.164,1.904,0.337
			c1.68,0.424,4.004,2.062,4.345,2.729c0.091,0.227-0.013,1.117-0.512,1.615c-0.203,0.204-0.52,0.404-1.167,0.145
			c-1.199-0.482-2.494-0.752-3.994-1.063c-1.822-0.379-3.887-0.808-6.476-1.747c-4.495-1.628-9.64-7.621-9.691-7.682
			c-0.19-0.223-0.468-0.352-0.761-0.352H5.905C3.751,30.203,2,28.447,2,26.289v-6.477c0-2.159,1.754-3.915,3.91-3.915H10.2
			c0.231,0,0.454-0.08,0.633-0.226c1.677-1.37,5.275-2.33,5.95-2.501h13.541c0.829,0,1.818,0.3,1.818,1.727
			c0,0.534-1.693,1.136-3.094,1.278c-0.495,0.051-0.877,0.456-0.898,0.953c-0.021,0.497,0.326,0.934,0.815,1.025
			c0.353,0.065,3.479,0.644,4.69,0.644c1.417,0,2.136,0.518,2.136,1.537c0,1.066-0.568,1.421-0.82,1.525l-2.597-0.061
			c-0.516-0.003-0.973,0.386-1.02,0.912c-0.046,0.524,0.322,0.996,0.843,1.076l4.137,0.636c0.198,0.015,1.187,0.142,1.187,1.232
			c0,1.138-0.681,1.69-0.959,1.867l-3.787,0.444c-0.525,0.062-0.912,0.521-0.882,1.049c0.029,0.527,0.464,0.941,0.993,0.944
			c0,0.001,15.624,0.091,15.995,0.09c0.011,0.002,1.12,0.365,1.12,1.523C50,32.381,48.937,32.871,48.592,33.008z"/>
		<path d="M45.561,19.858l3.536-3.535l3.536,3.535c0.195,0.195,0.451,0.293,0.707,0.293s0.512-0.098,0.707-0.293
			c0.391-0.391,0.391-1.023,0-1.414l-4.243-4.242c-0.391-0.391-1.023-0.391-1.414,0l-4.242,4.242c-0.391,0.391-0.391,1.023,0,1.414
			C44.538,20.249,45.17,20.249,45.561,19.858z"/>
		<path d="M49.804,20.202c-0.391-0.391-1.023-0.391-1.414,0l-4.243,4.242c-0.391,0.391-0.391,1.023,0,1.414s1.023,0.391,1.414,0
			l3.536-3.535l3.536,3.535c0.195,0.195,0.451,0.293,0.707,0.293s0.512-0.098,0.707-0.293c0.391-0.391,0.391-1.023,0-1.414
			L49.804,20.202z"/>
	</g>
</g>
</svg>